HIERARCHY
ROOT RootJoint
{
    OFFSET   0.000000   0.000000   0.000000
    CHANNELS 6 Xposition Yposition Zposition Xrotation Yrotation Zrotation
    JOINT pelvis_lowerback
    {
        OFFSET   0.000000   0.093605   0.000000
        CHANNELS 3 Xrotation Yrotation Zrotation
        JOINT lowerback_torso
        {
            OFFSET   0.000000   0.100000   0.000000
            CHANNELS 3 Xrotation Yrotation Zrotation
            JOINT torso_head
            {
                OFFSET   0.000000   0.282350   0.000000
                CHANNELS 3 Xrotation Yrotation Zrotation
                End Site
                {
                    OFFSET   0.000000   0.192650   0.000000
                }
            }
            JOINT rTorso_Clavicle
            {
                OFFSET  -0.001000   0.157500   0.000000
                CHANNELS 3 Xrotation Yrotation Zrotation
                JOINT rShoulder
                {
                    OFFSET  -0.117647   0.000000   0.000000
                    CHANNELS 3 Xrotation Yrotation Zrotation
                    JOINT rElbow
                    {
                        OFFSET  -0.245000   0.000000   0.000000
                        CHANNELS 3 Xrotation Yrotation Zrotation
                        JOINT rWrist
                        {
                            OFFSET  -0.240000   0.000000   0.000000
                            CHANNELS 3 Xrotation Yrotation Zrotation
                            End Site
                            {
                                OFFSET  -0.116353  -0.002500   0.000000
                            }
                        }
                    }
                }
            }
            JOINT lTorso_Clavicle
            {
                OFFSET   0.001000   0.157500   0.000000
                CHANNELS 3 Xrotation Yrotation Zrotation
                JOINT lShoulder
                {
                    OFFSET   0.117647   0.000000   0.000000
                    CHANNELS 3 Xrotation Yrotation Zrotation
                    JOINT lElbow
                    {
                        OFFSET   0.245000   0.000000   0.000000
                        CHANNELS 3 Xrotation Yrotation Zrotation
                        JOINT lWrist
                        {
                            OFFSET   0.240000   0.000000   0.000000
                            CHANNELS 3 Xrotation Yrotation Zrotation
                            End Site
                            {
                                OFFSET   0.116353  -0.002500   0.000000
                            }
                        }
                    }
                }
            }
        }
    }
    JOINT rHip
    {
        OFFSET  -0.100000  -0.051395   0.000000
        CHANNELS 3 Xrotation Yrotation Zrotation
        JOINT rKnee
        {
            OFFSET   0.000000  -0.410000   0.000000
            CHANNELS 3 Xrotation Yrotation Zrotation
            JOINT rAnkle
            {
                OFFSET   0.000000  -0.390000   0.000000
                CHANNELS 3 Xrotation Yrotation Zrotation
                JOINT rToeJoint
                {
                    OFFSET   0.000000  -0.050000   0.130000
                    CHANNELS 3 Xrotation Yrotation Zrotation
                    End Site
                    {
                        OFFSET  -0.010000   0.002000   0.060000
                    }
                }
            }
        }
    }
    JOINT lHip
    {
        OFFSET   0.100000  -0.051395   0.000000
        CHANNELS 3 Xrotation Yrotation Zrotation
        JOINT lKnee
        {
            OFFSET   0.000000  -0.410000   0.000000
            CHANNELS 3 Xrotation Yrotation Zrotation
            JOINT lAnkle
            {
                OFFSET   0.000000  -0.390000   0.000000
                CHANNELS 3 Xrotation Yrotation Zrotation
                JOINT lToeJoint
                {
                    OFFSET   0.000000  -0.050000   0.130000
                    CHANNELS 3 Xrotation Yrotation Zrotation
                    End Site
                    {
                        OFFSET   0.010000   0.002000   0.060000
                    }
                }
            }
        }
    }
}
MOTION
Frames: 15
Frame Time:   0.008333
 -2.376719   0.925631   3.975860   0.000000   0.000000   0.000000   0.000000   0.000000   0.000000   0.000000   0.000000   0.000000   0.000000   0.000000   0.000000   0.000000   0.000000   0.000000   0.000000   0.000000   0.000000   0.000000   0.000000   0.000000   0.000000   0.000000   0.000000   0.000000   0.000000   0.000000   0.000000   0.000000   0.000000   0.000000   0.000000   0.000000   0.000000   0.000000   0.000000   0.000000   0.000000   0.000000   0.000000   0.000000   0.000000   0.000000   0.000000   0.000000   0.000000   0.000000   0.000000   0.000000   0.000000   0.000000   0.000000   0.000000   0.000000   0.000000   0.000000   0.000000   0.000000   0.000000   0.000000
 -2.376494   0.926193   3.975846  -0.904016   0.094909  -0.066513   1.074685   0.041234   0.157733   0.108971  -0.137879  -0.026941  -0.219956   0.114961   0.034626   0.063212  -0.147084   0.234962   0.666948   0.272086   2.107058   0.018115   0.859462  -0.007722   0.257391  -0.644929  -2.669506   0.015766   0.136581  -0.415054   0.532974  -0.204052  -2.099039   0.021752  -1.012619   0.007516   0.220191   0.603428   2.841912   0.672633  -0.110740  -0.101595   1.122640   0.001656  -0.000182  -1.247130  -0.557816  -0.143567  -0.231712  -0.000632   0.001158   0.643120  -0.201237   0.207343   1.059993  -0.001304  -0.000976  -0.885915  -0.022656   0.109594   0.388332  -0.000845  -0.000439
 -2.376192   0.927159   3.975846  -1.871330   0.203298  -0.137780   2.107954   0.085858   0.336995   0.308644  -0.277473  -0.038468  -0.401175   0.225980   0.080591   0.129981  -0.185842   1.168075   1.306747   0.662722   4.771919   0.042367   1.715318  -0.013736   0.538065  -0.978089  -4.617574   0.036804   0.155696  -1.564023   1.039986  -0.533746  -4.789176   0.050697  -2.019082   0.013349   0.464414   0.838766   4.932677   1.390395  -0.232880  -0.338929   2.357218   0.004678  -0.000472  -2.412278  -1.085116  -0.291599  -0.501293  -0.001595   0.002193   1.323392  -0.386134   0.540669   2.220466  -0.003708  -0.001467  -1.708520  -0.044767   0.212188   0.727038  -0.001750  -0.000634
 -2.375855   0.928117   3.975861  -2.797908   0.315066  -0.205874   3.062936   0.130082   0.517146   0.500808  -0.410284  -0.040400  -0.569860   0.329764   0.129572   0.189491  -0.144716   2.534985   1.909488   1.142695   7.802025   0.066665   2.537534  -0.017819   0.815430  -1.128188  -5.754349   0.052400   0.093704  -3.149027   1.513248  -0.950826  -7.858011   0.079463  -2.983720   0.017225   0.709538   0.877575   6.178774   2.084091  -0.358078  -0.690035   3.544684   0.008124  -0.000907  -3.499180  -1.576607  -0.441041  -0.749835  -0.002536   0.002840   1.974318  -0.547369   0.972589   3.332382  -0.006493  -0.001429  -2.474897  -0.065189   0.308355   1.036583  -0.002635  -0.000669
 -2.375505   0.928769   3.975903  -3.666487   0.425620  -0.270020   3.945053   0.174435   0.692500   0.670328  -0.534549  -0.036211  -0.732782   0.426529   0.177896   0.239653  -0.054072   4.150638   2.472093   1.694142  11.077499   0.088027   3.319615  -0.020425   1.088427  -1.165857  -6.289283   0.060108  -0.015589  -4.973399   1.950688  -1.432951 -11.177401   0.104527  -3.898796   0.019604   0.952472   0.807902   6.804320   2.740746  -0.484663  -1.131096   4.660404   0.011453  -0.001481  -4.515183  -2.034202  -0.590394  -0.983056  -0.003396   0.003224   2.585299  -0.687571   1.483748   4.373677  -0.009226  -0.001043  -3.190741  -0.084082   0.398557   1.314397  -0.003400  -0.000606
 -2.375193   0.928883   3.975980  -4.476644   0.532122  -0.327773   4.762473   0.218389   0.854384   0.819455  -0.651022  -0.041144  -0.889907   0.516772   0.228037   0.279718   0.065174   5.897193   2.991849   2.303963  14.520910   0.105135   4.059033  -0.021957   1.355199  -1.133192  -6.409832   0.060340  -0.151874  -6.954013   2.332983  -1.942648 -14.527238   0.123939  -4.762944   0.020746   1.190427   0.670924   6.941798   3.358947  -0.611270  -1.640746   5.704235   0.014350  -0.002147  -5.465414  -2.459974  -0.738447  -1.202452  -0.004125   0.003420   3.156786  -0.809617   2.057907   5.345147  -0.011696  -0.000457  -3.859618  -0.101692   0.483133   1.563332  -0.004011  -0.000493
 -2.374956   0.928283   3.976101  -5.231347   0.633944  -0.378825   5.522181   0.261855   0.997030   0.952528  -0.759800  -0.060568  -1.040064   0.600808   0.277490   0.309990   0.197752   7.692542   3.466557   2.961020  18.077714   0.117669   4.755021  -0.022715   1.613488  -1.058463  -6.258725   0.054073  -0.298937  -9.003567   2.658778  -2.457339 -17.797682   0.137243  -5.575561   0.020962   1.419854   0.496846   6.745258   3.939939  -0.736827  -2.199662   6.680208   0.016673  -0.002836  -6.354186  -2.855888  -0.884160  -1.408000  -0.004696   0.003475   3.690981  -0.916112   2.681755   6.251372  -0.013793   0.000225  -4.484520  -0.118171   0.562446   1.787048  -0.004464  -0.000357
 -2.374661   0.926296   3.975519  -5.483935   0.629041  -0.392921   5.922007   0.301815   1.119155   0.953816  -0.835898  -0.116736  -1.364262   0.545968   0.247129   0.385654   0.481154   8.850356   3.909886   3.642413  21.651087   0.125961   5.495144  -0.024366   1.798599  -0.987822  -5.139657   0.148340  -0.476980 -10.243260   2.875225  -2.858280 -21.218264   0.142411  -6.365644   0.021296   1.598192   0.252360   5.652399   3.858044  -1.141853  -2.779652   7.608176   0.017612  -0.006546  -6.672035  -3.393598  -0.915730  -1.339350  -0.003360   0.002214   3.730909  -0.956390   3.180834   6.658836  -0.012765   0.000337  -4.949200  -0.048213   0.635280   2.031482  -0.004764  -0.000117
 -2.374357   0.923138   3.974673  -5.669062   0.599288  -0.404565   6.339123   0.346977   1.238758   0.933955  -0.889754  -0.167283  -1.689011   0.486777   0.207992   0.429179   0.807266   9.780683   4.271261   4.341817  24.890551   0.127896   6.202709  -0.025529   1.984470  -0.843120  -4.044627   0.220588  -0.669497 -11.222121   3.051354  -3.254653 -24.303469   0.140731  -7.107208   0.021444   1.765999  -0.001311   4.603272   3.699204  -1.536760  -3.320292   8.426515   0.017406  -0.009158  -6.963717  -3.900450  -0.949344  -1.226640  -0.002090   0.000845   3.686178  -0.996594   3.613412   6.930325  -0.011227   0.000311  -5.388595   0.016551   0.703775   2.246815  -0.004739   0.000007
 -2.374053   0.918917   3.973726  -5.829706   0.566252  -0.419254   6.763386   0.399509   1.359207   0.926539  -0.928151  -0.204555  -1.988538   0.430809   0.169457   0.446547   1.145044  10.546912   4.561788   5.034338  27.839470   0.125531   6.873537  -0.026137   2.167972  -0.651313  -3.132845   0.270003  -0.868323 -12.017201   3.189883  -3.644093 -27.099028   0.134924  -7.805038   0.021239   1.927623  -0.266843   3.753941   3.527889  -1.904665  -3.812866   9.168709   0.016573  -0.010737  -7.237540  -4.373388  -0.983579  -1.122409  -0.001172  -0.000138   3.598835  -1.037453   3.993059   7.148868  -0.009694   0.000266  -5.800619   0.075745   0.767929   2.440397  -0.004525   0.000081
 -2.373679   0.917857   3.972982  -6.100252   0.383761   0.126269   7.273221   0.490721   1.023337   0.988120  -0.931213  -0.427284  -2.266563   0.379191   0.116653   0.442563   1.501758  11.489217   4.784735   5.724829  30.663366   0.122257   7.505081  -0.026238   2.346211  -0.448140  -2.399529   0.305960  -1.064004 -12.862263   3.299529  -4.012318 -29.680233   0.128024  -8.447530   0.020697   2.079919  -0.485901   3.157464   3.459007  -2.226718  -4.766535   9.838530   0.014902  -0.011997  -7.483542  -4.817695  -1.020264  -0.945244  -0.000266  -0.001567   3.455754  -0.990136   3.391112   7.914400  -0.007545  -0.000202  -5.978839   0.143572   0.525669   1.919822  -0.004896   0.000116
 -2.373822   0.917282   3.972436  -6.305084   0.223335   0.388449   7.697627   0.581571   0.966515   1.039038  -0.923293  -0.566307  -2.514979   0.331430   0.058567   0.435595   1.830569  12.254433   4.963790   6.379651  33.274193   0.116774   8.100158  -0.025634   2.516844  -0.213963  -1.624434   0.347946  -1.232455 -13.602565   3.392690  -4.357241 -32.117921   0.119557  -9.051259   0.019754   2.223964  -0.710350   2.504801   3.356743  -2.539474  -5.271422  10.461999   0.012527  -0.012537  -7.719183  -5.231202  -1.055865  -0.816282   0.000079  -0.002266   3.368642  -0.953049   3.105817   8.479908  -0.006051  -0.000538  -6.151947   0.226545   0.520242   1.575708  -0.003953   0.000087
 -2.374293   0.916871   3.972005  -6.462832   0.100046   0.561810   8.079773   0.661971   0.975958   1.073178  -0.916936  -0.646881  -2.748269   0.286632   0.014277   0.425543   2.130819  12.901554   5.106574   6.991914  35.673637   0.109682   8.655280  -0.024577   2.677418   0.015334  -0.921296   0.386558  -1.383496 -14.234413   3.469245  -4.677324 -34.363908   0.109983  -9.614441   0.018512   2.359691  -0.926616   1.900708   3.239532  -2.838948  -5.591741  11.045583   0.010129  -0.012445  -7.942195  -5.614751  -1.089279  -0.716354   0.000202  -0.002530   3.299431  -0.931760   2.936977   8.930227  -0.004948  -0.000681  -6.344404   0.301429   0.544294   1.543887  -0.003151   0.000068
 -2.375180   0.916429   3.971553  -6.512444  -0.021956   0.734508   8.359716   0.719952   0.855311   1.086152  -0.879009  -0.612774  -2.966566   0.163267  -0.028986   0.406404   2.384480  13.141792   5.219208   7.565286  37.592260   0.099899   9.222632  -0.023486   2.791377   0.353289   0.490729   0.508095  -1.563615 -14.431542   3.479359  -5.040473 -36.284162   0.099434 -10.213860   0.017919   2.471157  -1.112545   0.776851   3.110245  -3.064669  -5.799646  11.201136   0.008003  -0.010458  -8.067840  -5.836888  -1.156648  -0.518824   0.000260  -0.003023   3.119688  -0.934772   2.792494   9.383961  -0.004179  -0.000886  -6.604482   0.403255   0.592085   1.542315  -0.002519   0.000055
 -2.376309   0.916380   3.971190  -6.537292  -0.016764   0.736985   8.614561   0.731659   0.873180   1.074782  -0.874842  -0.530451  -3.168533   0.044577  -0.061388   0.375066   2.610688  13.100181   5.315505   8.080510  39.179748   0.088336   9.747615  -0.022075   2.896003   0.675659   1.626469   0.594944  -1.749192 -14.416995   3.466392  -5.385680 -37.929990   0.087918 -10.780832   0.016952   2.581156  -1.322988  -0.127878   2.967519  -3.209324  -5.759395  11.467341   0.006168  -0.008732  -8.128823  -5.961631  -1.186272  -0.335393   0.000161  -0.002863   2.975134  -0.984664   2.855869   9.716015  -0.003561  -0.000756  -6.928143   0.469303   0.661048   1.684511  -0.002185   0.000099
